<svg width="1483" height="441" viewBox="0 0 1483 441" fill="none" xmlns="http://www.w3.org/2000/svg">
<rect x="-3" y="61" width="1486" height="370" fill="#FFD6C0"/>
<g clip-path="url(#clip0_217_315)" filter="url(#filter0_d_217_315)">
<path d="M511.407 429.004H386.737V425.218C386.737 421.931 388.057 418.779 390.406 416.454C392.755 414.13 395.94 412.824 399.262 412.824H498.883C502.204 412.824 505.39 414.13 507.739 416.454C510.088 418.779 511.407 421.931 511.407 425.218V429.004Z" fill="#999999"/>
<path d="M448.32 414L452.102 412.517C412.53 316.866 416.342 196.195 449.794 92.6802C453.767 80.6866 454.054 67.8234 450.618 55.6732C447.182 43.5231 440.174 32.6159 430.456 24.2936C411.04 7.42107 384.271 3.31076 360.593 13.5657C337.221 23.6897 334 41.3243 334 58.873H338.078C338.078 40.1406 342.189 25.884 362.251 17.1937C384.443 7.58296 409.536 11.4378 427.741 27.2567C436.869 35.073 443.451 45.3174 446.678 56.7293C449.906 68.1413 449.636 80.2229 445.904 91.4878C412.066 196.198 408.478 317.698 448.32 414Z" fill="#999999"/>
<path d="M334.621 111.484C342.523 111.484 348.928 105.146 348.928 97.3272C348.928 89.5085 342.523 83.1702 334.621 83.1702C326.72 83.1702 320.315 89.5085 320.315 97.3272C320.315 105.146 326.72 111.484 334.621 111.484Z" fill="#E6E6E6"/>
<path d="M312.588 122.007V95.1827H316.803V122.007C318.012 122.491 319.014 123.376 319.635 124.51C320.257 125.644 320.461 126.958 320.212 128.224C319.963 129.491 319.276 130.633 318.27 131.454C317.264 132.275 316 132.723 314.696 132.723C313.392 132.723 312.128 132.275 311.121 131.454C310.115 130.633 309.428 129.491 309.179 128.224C308.93 126.958 309.134 125.644 309.756 124.51C310.378 123.376 311.379 122.491 312.588 122.007Z" fill="#E6E6E6"/>
<path d="M292.213 74.5748C292.22 68.4086 294.699 62.4969 299.105 58.1368C303.511 53.7766 309.485 51.324 315.717 51.317H354.548C360.782 51.317 366.76 53.7673 371.167 58.129C375.575 62.4907 378.051 68.4064 378.051 74.5748C378.051 80.7431 375.575 86.6588 371.167 91.0205C366.76 95.3822 360.782 97.8326 354.548 97.8326H315.717C309.485 97.8256 303.511 95.373 299.105 91.0128C294.699 86.6526 292.22 80.741 292.213 74.5748V74.5748Z" fill="#EC5D0F"/>
<g filter="url(#filter1_d_217_315)">
<path d="M237.501 218.602C241.4 169.242 261.334 145.725 248.57 130.977C236.343 116.85 201.903 119.768 179.785 133.324C120.128 169.887 98.272 315.613 175.042 386.811C247.992 454.468 386.248 432.799 416.974 377.423C424.143 364.502 429.838 341.851 419.345 328.134C393.296 294.077 298.585 355.763 256.476 317.18C231.521 294.315 235.362 245.69 237.501 218.602Z" fill="#3F3D56"/>
</g>
<path d="M283.104 194.08C281.655 194.739 280.523 195.932 279.95 197.405C279.376 198.878 279.406 200.514 280.032 201.965C280.164 202.258 280.321 202.54 280.5 202.807L267.695 219.726L274.085 229.176L289.093 204.123C290.157 203.302 290.916 202.156 291.252 200.864C291.588 199.572 291.482 198.206 290.951 196.979C290.642 196.284 290.198 195.656 289.644 195.131C289.09 194.605 288.436 194.193 287.721 193.918C287.006 193.643 286.243 193.509 285.476 193.526C284.709 193.542 283.952 193.708 283.25 194.014C283.201 194.035 283.152 194.057 283.104 194.08Z" fill="#FFB6B6"/>
<path d="M283.094 223.25C283.932 223.985 281.607 224.893 279.148 223.461C278.445 223.047 278.144 222.874 278.065 222.984C277.868 223.258 279.022 225.276 278.714 229.759C278.524 232.435 274.033 237.466 268.933 242.371C262.039 249.006 254.022 255.405 254.022 255.405L251.208 253.176L221.693 229.759L216.713 222.937C217.169 220.243 217.854 217.592 218.76 215.012C220.009 211.44 221.493 207.954 223.204 204.575C224.121 202.736 225.062 200.984 225.963 199.372L241.775 216.616L255.026 231.058C255.026 231.058 258.885 224.909 261.873 223.234C262.254 222.994 262.688 222.846 263.138 222.804C266.158 222.663 266.34 221.036 262.838 217.492C259.335 213.948 263.755 217.257 266.87 216.303C269.985 215.348 266.87 216.303 267.526 213.916C268.182 211.53 276.919 206.742 276.919 206.742L277.283 207.063L283.884 212.829L285.774 214.48C285.774 214.48 283.71 220.081 283.141 221.263C282.572 222.444 282.263 222.507 283.094 223.25Z" fill="#EC5D0F"/>
<path d="M457.124 331.933L457.446 323.303L423.962 317.969L423.486 330.705L457.124 331.933Z" fill="#FFB6B6"/>
<g filter="url(#filter2_d_217_315)">
<path d="M451.046 334.531L450.728 320.714L456.698 320.932L466.334 308.158C466.81 307.528 467.478 307.064 468.239 306.834C469 306.605 469.815 306.623 470.566 306.885C471.316 307.147 471.962 307.639 472.41 308.29C472.857 308.941 473.083 309.716 473.053 310.503L472.441 326.917L466.431 329.531L472.295 330.851L472.064 337.04L451.046 334.531Z" fill="#2F2E41"/>
</g>
<path d="M268.671 335.293L374.728 337.954C374.728 337.954 420.527 340.572 431.272 333.654L442.604 332.239L443.218 315.768C443.218 315.768 436.289 315.818 432.305 313.982C428.321 312.145 431.09 309.897 427.292 312.107C423.493 314.317 423.894 314.583 420.958 313.567C418.021 312.552 283.349 292.239 283.349 292.239L268.671 335.293Z" fill="#2F2E41"/>
<path d="M408.426 328.145L414.593 322.036L393.713 295.589L384.611 304.607L408.426 328.145Z" fill="#FFB6B6"/>
<path d="M402.184 322.83L411.448 312.487L415.675 316.664L431.519 313.786C432.301 313.644 433.109 313.753 433.825 314.097C434.54 314.441 435.126 315.003 435.496 315.7C435.866 316.397 436.001 317.193 435.882 317.971C435.762 318.75 435.395 319.47 434.832 320.027L423.103 331.648L416.9 329.519L420.291 334.433L415.869 338.814L402.184 322.83Z" fill="#2F2E41"/>
<path d="M226.828 277.816L227.883 302.069C229.124 330.62 260.899 347.901 285.538 332.994C285.992 332.719 286.447 332.434 286.905 332.14C286.905 332.14 296.245 329.657 295.962 325.726C295.678 321.795 297.96 319.882 299.979 320.954C301.999 322.026 328.439 284.895 328.439 284.895C328.439 284.895 383.373 312.011 395.492 318.394C395.492 318.394 406.886 300.765 406.06 300.949C405.234 301.134 338.1 254.637 338.1 254.637C338.1 254.637 327.163 243.684 313.596 250.916C313.314 251.978 313.555 252.015 313.555 252.015L268.739 288.152L262.406 276.251L226.828 277.816Z" fill="#2F2E41"/>
<path d="M269.084 247.496C268.999 248.616 268.837 249.73 268.601 250.829C268.279 252.419 267.758 253.965 267.052 255.429C267.052 255.429 267.052 257.064 263.889 262.541C260.727 268.017 264.68 265.67 267.052 269.739C269.424 273.799 267.052 271.929 264.419 274.542C263.661 275.303 263.123 276.25 262.86 277.286C262.597 278.322 262.619 279.409 262.925 280.433C262.925 280.433 228.959 280.457 222.634 278.11C216.309 275.763 214.87 262.541 220.539 261.234C226.2 259.928 218.824 258.629 215.495 255.617C212.166 252.605 218.824 247.676 218.824 247.676C218.824 247.676 216.08 242.989 216.309 227.256C216.342 225.809 216.476 224.366 216.713 222.937C217.169 220.243 217.854 217.592 218.76 215.012C220.009 211.44 221.493 207.954 223.204 204.575C224.121 202.736 225.062 200.984 225.963 199.372C226.105 199.122 226.24 198.879 226.382 198.637C228.098 195.632 229.663 193.176 230.699 191.603C231.497 190.383 231.98 189.694 231.98 189.694L237.735 179.789L256.948 188.701L255.856 203.276L259.169 214.268L260.695 219.33L261.873 223.234L263.692 229.282C263.692 229.282 263.193 229.306 263.786 230.111C266.517 233.704 268.288 237.921 268.933 242.371C269.161 244.07 269.211 245.787 269.084 247.496V247.496Z" fill="#EC5D0F"/>
<path d="M324.566 249.066L324.206 248.951L278.222 234.298L295.167 179.289C295.504 178.193 296.089 177.188 296.876 176.348C297.663 175.509 298.632 174.857 299.711 174.442C300.79 174.027 301.949 173.86 303.103 173.954C304.256 174.047 305.373 174.398 306.37 174.98L335.755 192.16C338.081 193.519 339.851 195.643 340.755 198.161C341.659 200.68 341.64 203.433 340.701 205.939L324.566 249.066Z" fill="#2F2E41"/>
<path d="M324.753 252.564L278.399 237.793L295.344 182.783C295.682 181.688 296.266 180.682 297.053 179.843C297.84 179.003 298.81 178.352 299.888 177.937C300.967 177.522 302.127 177.355 303.28 177.448C304.434 177.541 305.551 177.892 306.547 178.475L337.335 193.686C341.961 196.389 341.853 203.387 339.705 209.128L324.753 252.564Z" fill="#EC5D0F"/>
<path d="M320.112 256.545C319.045 257.141 317.864 257.511 316.644 257.631C315.425 257.751 314.193 257.619 313.028 257.242L283.4 247.801C281.127 247.066 279.234 245.481 278.126 243.383C277.018 241.286 276.783 238.843 277.471 236.577L292.325 188.354C292.622 187.391 293.11 186.496 293.761 185.721C294.412 184.947 295.213 184.309 296.116 183.845C297.019 183.381 298.007 183.1 299.022 183.019C300.036 182.938 301.057 183.058 302.024 183.372L332.728 193.348C334.191 193.824 335.543 194.584 336.703 195.585C337.864 196.586 338.811 197.807 339.487 199.176C340.163 200.545 340.555 202.034 340.64 203.556C340.724 205.077 340.5 206.6 339.98 208.034L324.098 251.849C323.385 253.839 321.97 255.507 320.112 256.545V256.545Z" fill="#3F3D56"/>
<path d="M255.861 179.959C267.582 179.959 277.083 170.557 277.083 158.959C277.083 147.361 267.582 137.96 255.861 137.96C244.141 137.96 234.64 147.361 234.64 158.959C234.64 170.557 244.141 179.959 255.861 179.959Z" fill="#FFB6B6"/>
<path d="M184.101 180.275C186.049 184.01 189.242 186.964 193.139 188.636C194.695 189.337 196.33 189.849 198.01 190.161C198.484 188.298 199.245 186.517 200.263 184.881C199.924 186.725 199.924 188.614 200.263 190.458C202.823 190.665 205.397 190.349 207.827 189.529C210.214 188.726 212.379 187.383 214.15 185.608C215.921 183.832 217.249 181.673 218.03 179.301C219.721 173.735 217.9 167.789 217.756 161.979C217.608 156.169 220.397 149.219 226.226 148.5C230.665 147.951 230.116 148.377 233.306 151.48C228.844 156.385 239.722 178.109 245.559 177.149C248.859 176.606 251.287 174.014 251.94 174.104C255.282 182.203 245.229 193.69 253.202 197.461L252.611 196.686C248.437 189.863 260.787 178.339 256.613 171.516C255.45 169.608 254.24 167.37 254.96 165.258C255.643 163.251 259.103 162.616 259.833 164.443C258.647 160.255 261.96 155.339 266.36 154.912C270.269 154.53 270.043 155.633 273.771 156.639C274.247 155.05 274.933 153.53 275.812 152.119C275.514 153.729 275.478 155.375 275.703 156.996C277.047 157.155 278.407 156.87 279.571 156.186C283.013 154.144 283.116 148.874 280.751 145.666C278.382 142.458 274.415 140.874 270.587 139.675C270.552 131.664 248.77 127.83 244.763 135.277C244.351 129.247 237.366 125.185 231.348 126.209C225.331 127.234 220.583 132.008 217.689 137.33C214.795 142.648 213.359 148.603 211.24 154.267C209.122 159.931 206.093 165.579 201.02 168.94C195.948 172.297 188.41 172.601 184.175 168.251C183.209 170.109 182.699 172.165 182.687 174.254C182.674 176.343 183.158 178.406 184.101 180.275V180.275Z" fill="#2F2E41"/>
<path d="M205.876 276.304C206.315 275.957 206.792 275.658 207.297 275.414C215.419 271.414 240.678 261.03 260.429 261.456C298.432 262.276 346.795 303.778 335.539 331.648C326.974 352.855 284.395 364.92 253.314 355.27C209.771 341.752 192.584 286.791 205.876 276.304Z" fill="#3F3D56"/>
<g filter="url(#filter3_d_217_315)">
<path d="M48.1128 429.084C35.6952 426.765 24.7033 371.406 49.1347 344.142C57.5052 334.801 67.9463 330.735 81.8349 326.951C161.773 305.174 222.744 325.929 230.937 330.996C239.112 336.052 253.444 412.233 235.117 423.016C224.806 429.084 204.368 432.117 194.242 425.039C179.342 414.623 204.352 387.607 193.22 369.422C180.588 348.786 114.07 341.835 80.7204 362.344C45.1402 384.224 118.53 442.229 48.1128 429.084Z" fill="#F2F2F2"/>
</g>
<path d="M131.135 334.961H83.6956C71.9847 323.855 63.6113 313.152 70.3151 304.267C70.3151 301.713 71.3404 299.264 73.1653 297.458C74.9903 295.652 77.4654 294.637 80.0463 294.637H134.784C137.365 294.637 139.841 295.652 141.665 297.458C143.49 299.264 144.516 301.713 144.516 304.267C147.068 314.391 142.508 324.624 131.135 334.961Z" fill="#B2B2B2"/>
<path d="M122.616 282.515C122.165 282.535 121.72 282.418 121.339 282.18C120.958 281.941 120.661 281.593 120.487 281.181C120.313 280.77 120.271 280.316 120.367 279.88C120.463 279.444 120.692 279.048 121.023 278.746L121.173 278.153C121.154 278.106 121.134 278.058 121.114 278.011C120.66 276.951 119.9 276.047 118.93 275.414C117.959 274.78 116.82 274.444 115.657 274.448C114.494 274.452 113.358 274.797 112.392 275.438C111.426 276.079 110.673 276.988 110.228 278.051C108.447 282.294 106.18 286.545 105.622 291.032C105.376 293.015 105.48 295.025 105.929 296.973C101.747 287.947 99.5755 278.136 99.5616 268.205C99.5607 265.714 99.7006 263.224 99.9806 260.747C100.212 258.717 100.533 256.702 100.944 254.7C103.185 243.842 107.997 233.665 114.985 225.004C118.368 223.178 121.103 220.37 122.822 216.958C123.445 215.732 123.886 214.423 124.13 213.071C123.748 213.121 122.691 207.371 122.979 207.018C122.447 206.22 121.496 205.823 120.915 205.044C118.027 201.169 114.048 201.846 111.971 207.111C107.533 209.327 107.49 213.003 110.213 216.537C111.945 218.786 112.183 221.829 113.703 224.237C113.547 224.435 113.384 224.627 113.228 224.825C110.369 228.462 107.878 232.367 105.79 236.486C106.298 231.872 105.691 227.205 104.021 222.869C102.328 218.828 99.1551 215.424 96.3608 211.93C93.0044 207.734 86.1218 209.565 85.5305 214.885C85.5248 214.937 85.5192 214.988 85.5137 215.04C85.9288 215.271 86.3351 215.517 86.7326 215.777C87.232 216.107 87.6189 216.579 87.8428 217.131C88.0666 217.682 88.1168 218.288 87.9869 218.868C87.857 219.448 87.553 219.976 87.1147 220.383C86.6764 220.789 86.1243 221.055 85.5307 221.145L85.47 221.155C85.6178 222.635 85.8792 224.102 86.2518 225.543C82.6671 239.261 90.4062 244.258 101.457 244.482C101.701 244.606 101.938 244.73 102.182 244.847C100.084 250.731 98.7679 256.861 98.2669 263.081C97.9833 266.75 98 270.437 98.3169 274.104L98.2982 273.974C97.4975 269.896 95.2993 266.217 92.0748 263.557C87.2856 259.664 80.5193 258.231 75.3526 255.101C74.8035 254.753 74.1651 254.566 73.5125 254.565C72.86 254.563 72.2207 254.746 71.6698 255.093C71.119 255.439 70.6797 255.934 70.4038 256.519C70.1279 257.104 70.0268 257.755 70.1125 258.395C70.1195 258.441 70.1265 258.486 70.1337 258.532C70.9039 258.842 71.6538 259.2 72.379 259.602C72.7941 259.834 73.2004 260.08 73.5979 260.34C74.0973 260.67 74.4842 261.142 74.708 261.694C74.9318 262.245 74.9821 262.851 74.8522 263.431C74.7223 264.011 74.4183 264.539 73.98 264.945C73.5417 265.352 72.9897 265.618 72.3961 265.708L72.3352 265.717C72.2915 265.724 72.2539 265.73 72.2102 265.736C73.5262 268.845 75.3733 271.707 77.6704 274.197C79.9119 286.172 89.5389 287.308 99.8368 283.821H99.8431C100.973 288.68 102.61 293.409 104.728 297.933H122.178C122.241 297.741 122.297 297.543 122.353 297.351C120.738 297.451 119.117 297.356 117.525 297.066C118.82 295.494 120.114 293.91 121.409 292.337C121.438 292.308 121.465 292.277 121.49 292.245C122.147 291.44 122.81 290.642 123.467 289.837L123.467 289.836C123.502 287.37 123.215 284.909 122.616 282.515Z" fill="#8E8E8E"/>
<path d="M182.135 332.446C182.425 333.28 182.974 334.001 183.703 334.507C184.433 335.013 185.306 335.277 186.197 335.261L203.6 334.818C204.498 334.801 205.365 334.497 206.074 333.951C206.782 333.405 207.293 332.647 207.529 331.791L209.992 305.731C210.866 306.123 211.817 306.316 212.776 306.297C214.459 306.256 216.056 305.554 217.216 304.347C218.376 303.14 219.004 301.526 218.962 299.861C218.92 298.196 218.211 296.616 216.991 295.468C215.771 294.32 214.14 293.698 212.458 293.74C212.074 293.739 211.692 293.778 211.317 293.858C210.909 293.421 210.414 293.074 209.862 292.839C209.311 292.603 208.716 292.484 208.115 292.49L181.345 293.175C181.123 293.183 180.902 293.21 180.685 293.256C180.097 293.364 179.541 293.595 179.052 293.935C178.562 294.274 178.152 294.712 177.849 295.222C177.546 295.731 177.356 296.298 177.293 296.886C177.23 297.473 177.295 298.067 177.483 298.628L182.135 332.446ZM210.497 303.962L212.25 297.752C212.449 297.035 212.454 296.278 212.263 295.558C212.348 295.558 212.423 295.518 212.508 295.518C213.71 295.494 214.872 295.942 215.74 296.764C216.608 297.586 217.111 298.715 217.139 299.904C217.168 301.093 216.718 302.244 215.89 303.106C215.062 303.967 213.922 304.469 212.721 304.5C211.944 304.524 211.175 304.338 210.497 303.962Z" fill="#B2B2B2"/>
<path d="M180.685 293.256C181.255 296.483 187.667 298.751 195.377 298.357C202.467 298.034 208.265 295.57 209.327 292.65C208.934 292.535 208.525 292.481 208.115 292.49L181.345 293.175C181.123 293.183 180.902 293.21 180.685 293.256V293.256Z" fill="white"/>
<path d="M308.66 224.18C307.066 224.238 305.558 224.909 304.456 226.05C303.354 227.191 302.746 228.713 302.761 230.291C302.769 230.612 302.804 230.931 302.865 231.246L284.471 241.992L286.697 253.147L310.287 235.73C311.587 235.377 312.733 234.608 313.546 233.543C314.358 232.478 314.791 231.177 314.778 229.842C314.762 229.083 314.596 228.334 314.289 227.639C313.981 226.943 313.538 226.314 312.985 225.788C312.432 225.262 311.78 224.848 311.065 224.572C310.35 224.295 309.588 224.16 308.821 224.175C308.767 224.176 308.714 224.178 308.66 224.18Z" fill="#FFB6B6"/>
<path d="M293.592 249.799C293.1 249.146 292.888 248.873 292.777 248.948C292.489 249.12 292.766 251.425 290.74 255.442C287.888 261.084 257.985 269.727 257.985 269.727L254.304 263.057L238.11 233.747L232.528 210.253C232.333 209.434 232.238 208.594 232.246 207.753C237.222 204.287 242.507 201.277 248.035 198.759C250.244 199.999 251.928 201.984 252.779 204.352L263.927 235.281L268.375 247.63C268.375 247.63 276.222 242.078 279.068 243.097C281.909 244.122 282.717 242.685 280.859 238.081C279.002 233.478 281.79 238.217 285.034 238.518C288.285 238.823 285.034 238.518 286.57 236.564C288.106 234.611 298.034 233.512 298.034 233.512L298.245 233.948L302.092 241.78L303.193 244.03C303.193 244.03 299.115 248.409 298.131 249.281C297.142 250.161 296.836 250.1 297.321 251.101C297.798 252.098 295.301 252.053 293.592 249.799Z" fill="#EC5D0F"/>
</g>
<g filter="url(#filter4_d_217_315)">
<path d="M1413.07 332.764C1411.49 329.181 1411.32 325.181 1412.58 321.487C1413.84 317.793 1416.46 314.649 1419.96 312.623C1421.12 311.952 1420.06 310.214 1418.89 310.888C1414.87 313.157 1411.88 316.739 1410.47 320.957C1409.06 325.176 1409.33 329.737 1411.24 333.778C1411.77 334.963 1413.6 333.941 1413.07 332.764H1413.07Z" fill="#3F3D56"/>
<path d="M1413.6 335.522C1411.02 330.658 1411.63 324.838 1412.55 319.578C1413.52 314.087 1414.79 308.512 1413.69 302.928C1413.19 300.216 1412.02 297.699 1410.29 295.645C1409.45 294.679 1408.1 296.121 1408.94 297.084C1412.17 300.834 1412.55 306.274 1412.02 311.106C1411.4 316.804 1409.65 322.357 1409.87 328.148C1409.92 331.085 1410.64 333.966 1411.95 336.55C1412.08 336.773 1412.29 336.933 1412.53 336.995C1412.77 337.058 1413.02 337.018 1413.24 336.885C1413.45 336.752 1413.61 336.535 1413.67 336.281C1413.74 336.027 1413.71 335.755 1413.6 335.522L1413.6 335.522Z" fill="#3F3D56"/>
<path d="M1428.28 351.528H1393.6C1392.79 351.527 1392.02 351.202 1391.44 350.625C1390.87 350.047 1390.55 349.263 1390.54 348.446V338.186C1390.55 335.549 1391.59 333.022 1393.44 331.157C1395.29 329.293 1397.8 328.244 1400.42 328.241H1405.5C1405.77 328.241 1406.03 328.133 1406.22 327.94C1406.41 327.747 1406.52 327.486 1406.52 327.214V322.42C1406.52 321.966 1406.7 321.53 1407.02 321.209C1407.34 320.888 1407.77 320.708 1408.22 320.707H1413.66C1414.11 320.708 1414.54 320.888 1414.86 321.209C1415.18 321.53 1415.36 321.966 1415.36 322.42V327.214C1415.36 327.486 1415.47 327.747 1415.66 327.94C1415.85 328.133 1416.11 328.241 1416.38 328.241H1421.47C1424.08 328.244 1426.59 329.293 1428.44 331.157C1430.29 333.022 1431.33 335.549 1431.34 338.186V348.446C1431.34 349.263 1431.01 350.047 1430.44 350.625C1429.87 351.203 1429.09 351.528 1428.28 351.528V351.528Z" fill="#999999"/>
<path d="M1412.04 290.146C1412.79 294.134 1411.86 297.657 1409.97 298.015C1408.08 298.373 1405.95 295.43 1405.2 291.442C1404.45 287.453 1406.75 280.821 1406.75 280.821C1406.75 280.821 1411.29 286.157 1412.04 290.146Z" fill="#EC5D0F"/>
<path d="M1425.57 308.307C1423.24 311.591 1420.1 313.336 1418.57 312.204C1417.04 311.071 1417.69 307.491 1420.02 304.207C1422.35 300.923 1428.62 298.045 1428.62 298.045C1428.62 298.045 1427.9 305.022 1425.57 308.307Z" fill="#EC5D0F"/>
<path d="M1349.32 88.8554C1347.88 85.1343 1347.72 80.9805 1348.87 77.1446C1350.03 73.3087 1352.43 70.0435 1355.64 67.9391C1356.7 67.2427 1355.73 65.4382 1354.65 66.1381C1350.98 68.4937 1348.23 72.2139 1346.94 76.5945C1345.65 80.9751 1345.9 85.7119 1347.64 89.9081C1348.13 91.1385 1349.81 90.0772 1349.32 88.8554H1349.32Z" fill="#3F3D56"/>
<path d="M1350.05 90.7661C1347.05 85.9022 1347.76 80.0815 1348.84 74.8217C1349.97 69.3309 1351.44 63.7559 1350.16 58.1715C1349.58 55.4602 1348.21 52.9433 1346.19 50.8885C1345.22 49.9227 1343.65 51.365 1344.62 52.3279C1348.39 56.078 1348.83 61.5183 1348.22 66.3497C1347.5 72.0484 1345.45 77.6014 1345.7 83.3921C1345.77 86.3293 1346.6 89.2096 1348.13 91.7935C1348.29 92.0168 1348.53 92.1766 1348.81 92.2392C1349.09 92.3019 1349.39 92.2624 1349.64 92.1291C1349.88 91.9958 1350.07 91.7792 1350.15 91.5249C1350.22 91.2706 1350.19 90.9986 1350.05 90.7661L1350.05 90.7661Z" fill="#3F3D56"/>
<path d="M1364.82 106.772H1330.15C1329.34 106.771 1328.56 106.446 1327.99 105.869C1327.41 105.291 1327.09 104.507 1327.09 103.69V93.4299C1327.09 90.7934 1328.13 88.2656 1329.98 86.4013C1331.83 84.537 1334.34 83.4883 1336.96 83.4853H1342.05C1342.32 83.485 1342.58 83.3767 1342.77 83.1841C1342.96 82.9914 1343.07 82.7303 1343.07 82.4579V77.6635C1343.07 77.2096 1343.25 76.7743 1343.56 76.4533C1343.88 76.1323 1344.32 75.9518 1344.77 75.9512H1350.21C1350.66 75.9518 1351.09 76.1323 1351.41 76.4533C1351.73 76.7743 1351.9 77.2096 1351.9 77.6635V82.4579C1351.91 82.7303 1352.01 82.9914 1352.2 83.1841C1352.4 83.3767 1352.65 83.485 1352.92 83.4853H1358.01C1360.63 83.4883 1363.14 84.537 1364.99 86.4013C1366.84 88.2656 1367.88 90.7934 1367.88 93.4299V103.69C1367.88 104.507 1367.56 105.291 1366.99 105.869C1366.41 106.446 1365.63 106.771 1364.82 106.772Z" fill="#999999"/>
<path d="M1347.68 45.8054C1348.43 49.5838 1347.5 52.9217 1345.61 53.2607C1343.72 53.5997 1341.58 50.8115 1340.84 47.0331C1340.09 43.2547 1342.39 36.9716 1342.39 36.9716C1342.39 36.9716 1346.93 42.027 1347.68 45.8054Z" fill="#EC5D0F"/>
<path d="M1362.11 63.5507C1359.78 66.835 1356.65 68.5797 1355.12 67.4476C1353.58 66.3155 1354.23 62.7352 1356.56 59.4509C1358.89 56.1666 1365.16 53.2886 1365.16 53.2886C1365.16 53.2886 1364.44 60.2664 1362.11 63.5507Z" fill="#EC5D0F"/>
<path d="M1450.6 429.488H1242.56C1239.49 429.484 1236.56 428.268 1234.39 426.104C1232.22 423.941 1231 421.008 1231 417.949V38.5384C1231 35.4793 1232.22 32.5465 1234.39 30.3833C1236.56 28.2202 1239.49 27.0034 1242.56 27H1450.6C1453.66 27.0034 1456.6 28.2202 1458.77 30.3833C1460.94 32.5465 1462.16 35.4793 1462.16 38.5384V417.949C1462.16 421.008 1460.94 423.941 1458.77 426.104C1456.6 428.268 1453.66 429.484 1450.6 429.488V429.488ZM1242.56 28.3575C1239.85 28.3605 1237.26 29.4341 1235.35 31.3428C1233.44 33.2514 1232.36 35.8392 1232.36 38.5384V417.949C1232.36 420.649 1233.44 423.236 1235.35 425.145C1237.26 427.054 1239.85 428.127 1242.56 428.13H1450.6C1453.3 428.127 1455.9 427.054 1457.81 425.145C1459.72 423.236 1460.8 420.649 1460.8 417.949V38.5384C1460.8 35.8392 1459.72 33.2514 1457.81 31.3428C1455.9 29.4341 1453.3 28.3605 1450.6 28.3575H1242.56Z" fill="#111111"/>
<path d="M1461.25 104.959H1231.91V106.772H1461.25V104.959Z" fill="#3F3D56"/>
<path d="M1461.25 186.545H1231.91V188.358H1461.25V186.545Z" fill="#3F3D56"/>
<path d="M1461.25 268.13H1231.91V269.943H1461.25V268.13Z" fill="#3F3D56"/>
<path d="M1461.25 349.715H1231.91V351.528H1461.25V349.715Z" fill="#3F3D56"/>
<rect x="1403.5" y="114.5" width="29" height="72" rx="2.5" fill="#F2F2F2" stroke="#3F3D56"/>
<rect x="1404" y="130" width="28" height="12" fill="#EC5D0F"/>
<rect x="1404" y="161" width="28" height="12" fill="#EC5D0F"/>
<rect x="1284.5" y="195.5" width="29" height="72" rx="2.5" fill="#F2F2F2" stroke="#3F3D56"/>
<rect x="1285" y="210" width="28" height="12" fill="#EC5D0F"/>
<rect x="1285" y="241" width="28" height="12" fill="#EC5D0F"/>
<rect x="1388.5" y="356.5" width="29" height="72" rx="2.5" fill="#F2F2F2" stroke="#3F3D56"/>
<rect x="1389" y="371" width="28" height="12" fill="#EC5D0F"/>
<rect x="1389" y="402" width="28" height="12" fill="#EC5D0F"/>
<rect x="1352.5" y="356.5" width="29" height="72" rx="2.5" fill="#F2F2F2" stroke="#3F3D56"/>
<rect x="1353" y="371" width="28" height="12" fill="#EC5D0F"/>
<rect x="1353" y="402" width="28" height="12" fill="#EC5D0F"/>
<rect x="1316.5" y="356.5" width="29" height="72" rx="2.5" fill="#F2F2F2" stroke="#3F3D56"/>
<rect x="1317" y="371" width="28" height="12" fill="#EC5D0F"/>
<rect x="1317" y="402" width="28" height="12" fill="#EC5D0F"/>
<rect x="1255.5" y="349.5" width="29" height="72" rx="2.5" transform="rotate(-90 1255.5 349.5)" fill="#F2F2F2" stroke="#3F3D56"/>
<rect x="1270" y="349" width="28" height="12" transform="rotate(-90 1270 349)" fill="#EC5D0F"/>
<rect x="1301" y="349" width="28" height="12" transform="rotate(-90 1301 349)" fill="#EC5D0F"/>
<rect x="1273.5" y="319.5" width="29" height="72" rx="2.5" transform="rotate(-90 1273.5 319.5)" fill="#F2F2F2" stroke="#3F3D56"/>
<rect x="1288" y="319" width="28" height="12" transform="rotate(-90 1288 319)" fill="#EC5D0F"/>
<rect x="1319" y="319" width="28" height="12" transform="rotate(-90 1319 319)" fill="#EC5D0F"/>
<rect x="1249.5" y="195.5" width="29" height="72" rx="2.5" fill="#F2F2F2" stroke="#3F3D56"/>
<rect x="1250" y="210" width="28" height="12" fill="#EC5D0F"/>
<rect x="1250" y="241" width="28" height="12" fill="#EC5D0F"/>
<rect x="1231.64" y="122.001" width="29" height="72" rx="2.5" transform="rotate(-25 1231.64 122.001)" fill="#F2F2F2" stroke="#3F3D56"/>
<rect x="1238.23" y="134.931" width="28" height="12" transform="rotate(-25 1238.23 134.931)" fill="#EC5D0F"/>
<rect x="1251.33" y="163.027" width="28" height="12" transform="rotate(-25 1251.33 163.027)" fill="#EC5D0F"/>
<rect x="1313.66" y="203.92" width="29" height="72" rx="2.5" transform="rotate(-25 1313.66 203.92)" fill="#F2F2F2" stroke="#3F3D56"/>
<rect x="1320.25" y="216.851" width="28" height="12" transform="rotate(-25 1320.25 216.851)" fill="#EC5D0F"/>
<rect x="1333.35" y="244.946" width="28" height="12" transform="rotate(-25 1333.35 244.946)" fill="#EC5D0F"/>
</g>
<defs>
<filter id="filter0_d_217_315" x="-21" y="0" width="604.969" height="441" filterUnits="userSpaceOnUse" color-interpolation-filters="sRGB">
<feFlood flood-opacity="0" result="BackgroundImageFix"/>
<feColorMatrix in="SourceAlpha" type="matrix" values="0 0 0 0 0 0 0 0 0 0 0 0 0 0 0 0 0 0 127 0" result="hardAlpha"/>
<feOffset dx="12" dy="5"/>
<feGaussianBlur stdDeviation="2.5"/>
<feColorMatrix type="matrix" values="0 0 0 0 0 0 0 0 0 0 0 0 0 0 0 0 0 0 0.25 0"/>
<feBlend mode="normal" in2="BackgroundImageFix" result="effect1_dropShadow_217_315"/>
<feBlend mode="normal" in="SourceGraphic" in2="effect1_dropShadow_217_315" result="shape"/>
</filter>
<filter id="filter1_d_217_315" x="125.774" y="118.676" width="316.335" height="321.3" filterUnits="userSpaceOnUse" color-interpolation-filters="sRGB">
<feFlood flood-opacity="0" result="BackgroundImageFix"/>
<feColorMatrix in="SourceAlpha" type="matrix" values="0 0 0 0 0 0 0 0 0 0 0 0 0 0 0 0 0 0 127 0" result="hardAlpha"/>
<feOffset dx="10" dy="4"/>
<feGaussianBlur stdDeviation="3.5"/>
<feComposite in2="hardAlpha" operator="out"/>
<feColorMatrix type="matrix" values="0 0 0 0 0 0 0 0 0 0 0 0 0 0 0 0 0 0 0.1 0"/>
<feBlend mode="normal" in2="BackgroundImageFix" result="effect1_dropShadow_217_315"/>
<feBlend mode="normal" in="SourceGraphic" in2="effect1_dropShadow_217_315" result="shape"/>
</filter>
<filter id="filter2_d_217_315" x="450.728" y="303.675" width="39.3275" height="44.3649" filterUnits="userSpaceOnUse" color-interpolation-filters="sRGB">
<feFlood flood-opacity="0" result="BackgroundImageFix"/>
<feColorMatrix in="SourceAlpha" type="matrix" values="0 0 0 0 0 0 0 0 0 0 0 0 0 0 0 0 0 0 127 0" result="hardAlpha"/>
<feOffset dx="10" dy="4"/>
<feGaussianBlur stdDeviation="3.5"/>
<feComposite in2="hardAlpha" operator="out"/>
<feColorMatrix type="matrix" values="0 0 0 0 0 0 0 0 0 0 0 0 0 0 0 0 0 0 0.1 0"/>
<feBlend mode="normal" in2="BackgroundImageFix" result="effect1_dropShadow_217_315"/>
<feBlend mode="normal" in="SourceGraphic" in2="effect1_dropShadow_217_315" result="shape"/>
</filter>
<filter id="filter3_d_217_315" x="34.5621" y="317.195" width="219.462" height="121.805" filterUnits="userSpaceOnUse" color-interpolation-filters="sRGB">
<feFlood flood-opacity="0" result="BackgroundImageFix"/>
<feColorMatrix in="SourceAlpha" type="matrix" values="0 0 0 0 0 0 0 0 0 0 0 0 0 0 0 0 0 0 127 0" result="hardAlpha"/>
<feOffset dx="6" dy="4"/>
<feGaussianBlur stdDeviation="2"/>
<feComposite in2="hardAlpha" operator="out"/>
<feColorMatrix type="matrix" values="0 0 0 0 0 0 0 0 0 0 0 0 0 0 0 0 0 0 0.1 0"/>
<feBlend mode="normal" in2="BackgroundImageFix" result="effect1_dropShadow_217_315"/>
<feBlend mode="normal" in="SourceGraphic" in2="effect1_dropShadow_217_315" result="shape"/>
</filter>
<filter id="filter4_d_217_315" x="1231" y="27" width="248.159" height="412.488" filterUnits="userSpaceOnUse" color-interpolation-filters="sRGB">
<feFlood flood-opacity="0" result="BackgroundImageFix"/>
<feColorMatrix in="SourceAlpha" type="matrix" values="0 0 0 0 0 0 0 0 0 0 0 0 0 0 0 0 0 0 127 0" result="hardAlpha"/>
<feOffset dx="12" dy="5"/>
<feGaussianBlur stdDeviation="2.5"/>
<feComposite in2="hardAlpha" operator="out"/>
<feColorMatrix type="matrix" values="0 0 0 0 0 0 0 0 0 0 0 0 0 0 0 0 0 0 0.25 0"/>
<feBlend mode="normal" in2="BackgroundImageFix" result="effect1_dropShadow_217_315"/>
<feBlend mode="normal" in="SourceGraphic" in2="effect1_dropShadow_217_315" result="shape"/>
</filter>
<clipPath id="clip0_217_315">
<rect width="587.969" height="431" fill="white" transform="translate(-21)"/>
</clipPath>
</defs>
</svg>
